<svg xmlns="http://www.w3.org/2000/svg" version="1.1" xmlns:xlink="http://www.w3.org/1999/xlink" xmlns:svgjs="http://svgjs.dev/svgjs" viewBox="0 0 600 600"><path d="M-199.99374197996968 -168.2215936835753C29.04818408611112 49.59277074971328 -80.9817333129775 -108.64076620898118 100.90448189698338 103.93408649602065C282.7906971069443 316.5089392010225 132.04217212322044 163.21552977401547 18.26971627198344 86.8682295624269C-95.5027395792535 10.520929350838344 -29.63445853270406 134.32331658838723 -35.622465124500934 12.317326242114405C-41.61047171629781 -109.68866410415839 14.826631555186566 12.317323698982875 11.084108361827191 -59.53895885310044C7.341585168467816 -131.39524140518375 81.14398385010838 -44.71859803360175 -40.113492956532184 -73.9102128203856C-161.3709697631728 -103.10182760716944 -49.844022741688434 -36.9341630792764 -134.42486380614156 -94.56889659724106C-219.00570487059468 -152.20363011520573 -108.67636425373269 -90.67668118637272 -141.61050223387593 -143.0718930419432C-174.54464021401918 -195.4671048975137 -125.293129593902 -136.4850669558989 -173.94582938231343 -157.44315082392563C-222.59852917072487 -178.40123469195237 -429.03566804605043 -386.03595811686387 -199.99374197996968 -168.2215936835753C29.04818408611112 49.59277074971328 -80.9817333129775 -108.64076620898118 100.90448189698338 103.93408649602065 " fill="url(&quot;#SvgjsLinearGradient1003&quot;)" transform="matrix(-0.9396926207859083,0.17632698070846492,0.34202014332566866,0.9999999999999998,451.3511955189604,231.13321946628082)"></path><path d="M343.2011050047306 -114.1562162447809C572.2430310708114 103.65814818850768 462.2131136717228 -54.57538877018678 644.0993288816837 157.9994639348152C825.9855440916447 370.57431663981697 675.2370191079207 217.28090721281015 561.4645632566837 140.9336070012213C447.6921074054468 64.58630678963274 513.5603884519962 188.3886940271818 507.57238186019936 66.3827036809088C501.5843752684025 -55.62328666536399 558.0214785398869 66.38270113777727 554.2789553465275 -5.4735814143060395C550.5364321531681 -77.32986396638937 624.3388308348087 9.346779405192649 503.0813540281681 -19.844835381591196C381.8238772215275 -49.03645016837504 493.35082424301186 17.131214359517998 408.76998317855873 -40.503519158446665C324.1891421141056 -98.13825267641135 434.51848273096766 -36.61130374757833 401.58434475082436 -89.00651560314881C368.6502067706811 -141.4017274587193 417.90171739079835 -82.4196895171045 369.24901760238686 -103.37777338513123C320.5963178139754 -124.33585725315797 114.15917893864986 -331.9705806780695 343.2011050047306 -114.1562162447809C572.2430310708114 103.65814818850768 462.2131136717228 -54.57538877018678 644.0993288816837 157.9994639348152 " fill-opacity="1" fill="url(&quot;#SvgjsRadialGradient1000&quot;)" opacity="1" stroke-opacity="1" stroke-width="0" stroke="hsl(340, 45%, 30%)" transform="matrix(-0.8331871088457928,-0.4689484698113868,-0.3807849794571543,0.9858907535119322,926.446900584102,333.3131720111396)"></path><defs><radialGradient id="SvgjsRadialGradient1000"><stop stop-color="hsl(180, 69%, 40%)" offset="0"></stop><stop stop-color="hsl(180, 69%, 60%)" offset="1"></stop></radialGradient><linearGradient id="SvgjsLinearGradient1001"><stop stop-color="hsl(180, 69%, 40%)" offset="0"></stop><stop stop-color="hsl(180, 69%, 60%)" offset="1"></stop></linearGradient><radialGradient id="SvgjsRadialGradient1002"><stop stop-color="hsl(340, 45%, 50%)" offset="0"></stop><stop stop-color="hsl(340, 45%, 80%)" offset="1"></stop></radialGradient><linearGradient id="SvgjsLinearGradient1003"><stop stop-color="hsl(180, 69%, 40%)" offset="0"></stop><stop stop-color="hsl(180, 69%, 60%)" offset="1"></stop></linearGradient></defs></svg>